<?xml version="1.0" standalone="no"?>
<!DOCTYPE svg PUBLIC "-//W3C//DTD SVG 20010904//EN"
 "http://www.w3.org/TR/2001/REC-SVG-20010904/DTD/svg10.dtd">
<svg version="1.0" xmlns="http://www.w3.org/2000/svg"
 width="512.000000pt" height="512.000000pt" viewBox="0 0 512.000000 512.000000"
 preserveAspectRatio="xMidYMid meet">

<g transform="translate(0.000000,512.000000) scale(0.100000,-0.100000)"
fill="#000000" stroke="none">
<path d="M2335 5109 c-243 -23 -530 -105 -760 -218 -844 -414 -1340 -1295
-1254 -2231 58 -645 412 -1256 939 -1626 44 -30 80 -59 80 -62 -1 -4 -83 -155
-183 -337 l-183 -330 -434 -5 c-392 -4 -438 -7 -467 -23 -38 -20 -73 -82 -73
-127 0 -50 35 -107 80 -130 39 -20 53 -20 2480 -20 2427 0 2441 0 2480 20 45
23 80 80 80 130 0 45 -35 107 -73 127 -29 16 -75 19 -467 23 l-434 5 -185 335
-184 334 28 21 c371 266 597 526 776 890 422 861 247 1897 -435 2578 -474 474
-1135 710 -1811 646z m555 -318 c302 -52 597 -180 845 -366 105 -78 295 -268
374 -374 442 -585 524 -1356 213 -2013 -98 -209 -218 -377 -391 -548 -117
-116 -290 -255 -303 -242 -6 7 -675 1217 -709 1284 l-19 37 34 53 c118 185 94
410 -59 564 -176 177 -453 177 -630 -1 -153 -152 -177 -378 -59 -563 l34 -53
-19 -37 c-34 -67 -703 -1277 -709 -1284 -10 -10 -174 117 -275 212 -404 383
-626 927 -604 1480 17 407 150 781 392 1105 78 104 268 295 372 373 286 216
625 352 978 392 125 14 403 4 535 -19z m-260 -1791 c45 -23 80 -80 80 -131 0
-73 -76 -149 -150 -149 -50 0 -107 35 -130 80 -25 50 -25 90 0 140 37 73 124
99 200 60z m364 -1226 c197 -357 360 -656 363 -665 9 -32 -251 -121 -471 -161
-173 -31 -479 -31 -652 0 -185 33 -474 126 -474 152 0 7 679 1248 715 1305 11
17 22 20 86 19 l74 -2 359 -648z m-1308 -978 c552 -233 1196 -233 1748 0 44
18 80 33 81 31 8 -10 285 -518 285 -522 0 -3 -558 -5 -1240 -5 -682 0 -1240 3
-1240 6 0 3 282 522 285 524 0 0 37 -15 81 -34z"/>
<path d="M2455 4506 c-84 -21 -147 -57 -211 -121 -177 -176 -177 -453 1 -630
258 -259 695 -118 757 244 24 141 -22 281 -127 387 -112 113 -269 158 -420
120z m175 -306 c45 -23 80 -80 80 -130 0 -76 -74 -150 -151 -150 -46 0 -108
39 -130 82 -37 72 -14 151 57 194 48 29 92 30 144 4z"/>
<path d="M3455 4006 c-84 -21 -147 -57 -211 -121 -177 -176 -177 -453 1 -630
258 -259 695 -118 757 244 24 141 -22 281 -127 387 -112 113 -269 158 -420
120z m175 -306 c45 -23 80 -80 80 -130 0 -76 -74 -150 -151 -150 -46 0 -108
39 -130 82 -37 72 -14 151 57 194 48 29 92 30 144 4z"/>
<path d="M1645 3991 c-57 -35 -224 -219 -290 -320 -71 -108 -137 -239 -156
-313 -40 -147 123 -251 239 -153 18 15 43 58 66 113 51 124 144 261 245 362
112 111 121 125 121 184 0 57 -28 109 -70 131 -41 21 -118 19 -155 -4z"/>
<path d="M1255 2906 c-84 -21 -147 -57 -211 -121 -177 -176 -177 -453 1 -630
258 -259 695 -118 757 244 24 141 -22 281 -127 387 -112 113 -269 158 -420
120z m175 -306 c45 -23 80 -80 80 -130 0 -76 -74 -150 -151 -150 -46 0 -108
39 -130 82 -37 72 -14 151 57 194 48 29 92 30 144 4z"/>
<path d="M3655 2906 c-84 -21 -147 -57 -211 -121 -177 -176 -177 -453 1 -630
258 -259 695 -118 757 244 24 141 -22 281 -127 387 -112 113 -269 158 -420
120z m175 -306 c45 -23 80 -80 80 -130 0 -76 -74 -150 -151 -150 -46 0 -108
39 -130 82 -37 72 -14 151 57 194 48 29 92 30 144 4z"/>
</g>
</svg>
