<svg xmlns="http://www.w3.org/2000/svg" version="1.0" width="980.000000pt" height="940.000000pt" viewBox="0 0 980.000000 940.000000" preserveAspectRatio="xMidYMid meet">

<g transform="translate(0.000000,940.000000) scale(0.100000,-0.100000)" fill="#ffffff" stroke="none">
<path d="M3498 9390 c-148 -11 -303 -35 -503 -75 -857 -173 -1630 -598 -2250 -1236 -287 -295 -425 -486 -574 -789 -128 -260 -160 -390 -160 -645 0 -140 2 -168 22 -226 34 -100 84 -176 177 -270 256 -260 684 -427 1280 -501 168 -21 787 -17 970 5 1077 134 1983 616 2719 1446 108 122 267 332 341 451 74 118 181 341 218 452 76 230 81 542 12 679 -111 218 -345 407 -660 534 -213 85 -472 144 -723 164 -172 14 -739 21 -869 11z m749 -296 c29 -6 30 -9 48 -102 84 -453 232 -833 446 -1147 73 -108 127 -173 257 -314 l83 -89 -58 -69 c-226 -270 -522 -542 -833 -765 -518 -372 -1156 -607 -1849 -683 -243 -26 -729 -17 -853 16 -21 5 -42 17 -47 27 -4 9 -21 85 -36 167 -80 443 -319 962 -622 1351 -76 99 -80 122 -27 186 141 170 409 428 615 591 592 468 1379 777 2104 825 151 11 729 15 772 6z" fill="#ffffff"/>
<path d="M3075 8844 c-47 -53 -85 -99 -85 -102 0 -4 38 -52 85 -106 47 -54 85 -103 85 -107 0 -14 -22 -23 -245 -96 l-220 -72 -105 109 c-58 60 -129 130 -159 155 l-53 46 -25 -23 c-27 -25 -143 -184 -143 -195 0 -4 46 -54 102 -110 56 -56 100 -104 97 -106 -2 -3 -31 -18 -64 -35 -33 -17 -130 -75 -215 -129 l-156 -99 -113 107 c-140 133 -186 167 -209 153 -9 -6 -48 -55 -86 -108 l-69 -98 124 -124 124 -124 -110 -110 c-60 -60 -107 -111 -104 -113 2 -2 51 -45 108 -95 l104 -92 56 49 c31 27 67 61 80 75 14 14 28 26 31 26 12 0 73 -142 109 -256 l36 -111 80 14 c44 7 104 20 133 28 51 15 52 16 52 55 0 56 -43 186 -111 333 -32 70 -59 132 -59 137 0 17 185 141 358 238 l73 42 32 -67 c17 -37 54 -133 82 -213 l51 -145 54 3 c62 2 187 28 210 42 13 8 12 18 -4 82 -10 40 -43 140 -72 221 -30 81 -54 159 -54 172 0 22 9 27 83 49 127 39 288 76 329 76 28 0 41 -6 52 -22 26 -40 65 -171 82 -277 l18 -104 115 7 c64 3 129 9 145 12 l28 7 -6 64 c-8 77 -28 166 -63 286 -14 48 -24 90 -21 93 4 3 40 8 82 11 l76 6 0 128 c0 174 8 169 -204 149 -89 -9 -111 -8 -117 3 -56 99 -272 357 -299 357 -11 0 -54 -39 -105 -96z" fill="#ffffff"/>
<path d="M7120 6719 c-275 -33 -604 -131 -845 -252 -264 -132 -527 -336 -735 -571 -158 -179 -241 -304 -356 -536 -137 -279 -205 -509 -235 -805 -15 -151 -6 -501 16 -645 105 -667 490 -1264 1060 -1645 123 -82 374 -208 515 -259 136 -49 336 -100 475 -122 150 -23 523 -23 690 0 404 55 838 244 1186 516 106 83 285 260 373 370 231 289 407 659 479 1005 42 201 52 298 51 525 0 397 -75 717 -250 1069 -201 405 -508 745 -889 985 -222 140 -542 270 -791 321 -190 38 -593 62 -744 44z m519 -305 c440 -56 827 -236 1169 -542 208 -186 427 -498 536 -764 51 -123 50 -128 -24 -128 -80 0 -348 35 -495 65 -538 109 -1028 458 -1335 950 -53 86 -162 304 -184 368 -28 83 -32 80 102 72 64 -3 168 -13 231 -21z m-614 -134 c83 -210 231 -472 370 -655 218 -288 480 -510 784 -664 332 -168 656 -247 1150 -281 79 -5 145 -11 147 -13 13 -13 27 -198 28 -352 0 -264 -34 -476 -115 -713 -39 -113 -171 -402 -184 -402 -3 0 -99 76 -213 169 -224 182 -503 401 -702 551 -363 274 -1136 792 -1725 1157 -199 123 -288 177 -620 373 -168 100 -255 158 -255 170 0 16 171 190 294 298 213 187 442 318 721 410 184 62 180 60 234 59 l44 -2 42 -105z m-1274 -1059 c904 -518 2081 -1302 2767 -1842 178 -141 451 -370 492 -413 l24 -27 -114 -115 c-204 -205 -382 -335 -624 -454 -152 -75 -395 -160 -455 -160 -51 0 -71 24 -130 157 -111 251 -227 459 -338 607 -138 184 -401 432 -583 552 -112 73 -340 186 -484 239 -248 91 -558 149 -856 161 -96 4 -180 11 -187 16 -39 31 -51 427 -19 643 24 160 67 322 120 458 65 167 136 307 155 307 5 0 109 -58 232 -129z m-41 -1602 c771 -95 1355 -533 1691 -1269 60 -132 72 -183 43 -194 -28 -11 -176 -6 -309 9 -672 79 -1265 464 -1614 1050 -61 102 -143 274 -174 365 -14 41 -14 46 1 58 20 16 116 11 362 -19z" fill="#ffffff"/>
<path d="M1487 4960 c-157 -18 -413 -98 -582 -182 -507 -252 -829 -713 -895 -1283 -44 -385 57 -849 263 -1209 279 -488 698 -870 1206 -1101 361 -164 610 -219 1006 -219 290 -1 466 24 680 96 235 78 479 233 665 422 35 36 68 66 72 66 4 0 218 -144 475 -320 l468 -320 6 -73 c10 -116 25 -157 76 -205 62 -60 256 -203 591 -436 l282 -196 94 0 c132 0 152 6 204 59 157 162 212 322 152 446 -33 68 -194 191 -615 472 -342 228 -323 218 -435 218 -72 0 -103 -4 -128 -18 -32 -18 -34 -17 -80 5 -45 22 -883 576 -910 603 -11 10 -6 28 31 101 117 234 174 521 165 837 -4 135 -11 198 -32 294 -72 332 -218 640 -445 938 -89 118 -320 353 -441 449 -352 280 -809 485 -1220 546 -98 14 -553 21 -653 10z m600 -301 c45 -6 90 -17 100 -24 16 -12 14 -16 -19 -49 -20 -20 -41 -36 -46 -36 -10 0 -152 117 -152 125 0 2 8 2 18 0 9 -2 54 -9 99 -16z m-539 -42 c97 -58 382 -293 382 -315 0 -29 -232 -302 -257 -302 -28 0 -328 229 -546 418 -80 69 -96 87 -85 97 20 19 181 80 288 110 52 15 100 28 105 30 20 7 61 -7 113 -38z m1052 -103 c35 -14 108 -48 162 -75 110 -55 108 -49 49 -129 -78 -106 -136 -170 -156 -170 -11 0 -38 12 -60 27 -49 32 -183 143 -209 172 -18 20 -18 21 10 58 32 43 127 143 135 143 3 0 34 -12 69 -26z m-1549 -416 c369 -298 418 -340 419 -358 0 -23 -226 -318 -244 -319 -5 -1 -34 18 -65 41 -99 74 -656 521 -663 532 -4 6 -5 20 -2 31 18 65 221 295 260 295 13 0 130 -88 295 -222z m2129 71 c24 -18 82 -69 129 -115 l86 -83 -17 -28 c-29 -50 -183 -242 -193 -243 -11 0 -288 217 -293 229 -6 18 212 271 234 271 6 0 31 -14 54 -31z m-847 -172 c85 -68 135 -113 130 -120 -13 -23 -232 -293 -250 -309 -17 -15 -26 -10 -150 94 -77 64 -133 118 -133 128 0 32 236 333 253 323 7 -4 74 -56 150 -116z m-1663 -525 c354 -288 355 -288 344 -313 -5 -10 -63 -86 -128 -168 -103 -130 -121 -148 -136 -138 -9 7 -116 93 -239 192 l-223 179 7 116 c13 228 48 395 78 373 6 -5 140 -114 297 -241z m2968 206 c73 -108 144 -240 149 -276 5 -36 1 -44 -36 -85 l-42 -46 -134 105 c-73 57 -138 110 -144 118 -8 10 -5 22 15 52 49 72 136 174 150 174 7 0 26 -19 42 -42z m-859 -40 c123 -91 192 -152 197 -174 5 -18 -17 -51 -112 -168 -67 -84 -124 -146 -134 -146 -20 0 -123 72 -227 158 l-72 59 76 94 c83 104 192 219 207 219 5 0 34 -19 65 -42z m-948 -170 c193 -151 175 -133 159 -165 -38 -72 -222 -303 -242 -303 -25 0 -270 196 -281 224 -6 14 235 326 251 326 4 0 55 -37 113 -82z m1496 -269 c89 -70 160 -136 174 -161 7 -14 -15 -47 -111 -167 -66 -83 -125 -153 -131 -156 -20 -13 -272 199 -277 233 -2 14 16 46 54 94 64 81 193 218 205 218 4 0 43 -28 86 -61z m-926 -184 c76 -61 138 -113 139 -118 0 -4 -57 -79 -127 -166 l-127 -159 -38 19 c-47 24 -235 174 -248 198 -7 14 11 44 91 152 111 148 148 191 163 186 5 -2 71 -52 147 -112z m-1062 -77 c92 -73 201 -178 201 -195 0 -28 -218 -288 -251 -298 -13 -4 -37 8 -81 42 -100 76 -198 163 -198 175 0 11 18 35 158 211 52 64 96 117 99 117 3 0 35 -23 72 -52z m2535 -184 c59 -48 110 -93 113 -101 7 -17 -13 -195 -33 -303 -20 -103 -35 -150 -49 -150 -34 0 -405 297 -405 325 0 22 242 315 260 315 4 0 55 -39 114 -86z m-3383 -65 c38 -28 69 -52 69 -54 0 -2 2 -10 5 -17 3 -8 -13 -38 -35 -67 l-40 -54 -26 59 c-15 32 -37 87 -50 122 -31 80 -18 82 77 11z m2399 -73 c58 -46 120 -97 139 -113 l35 -30 -24 -34 c-64 -92 -231 -289 -246 -289 -28 0 -274 213 -274 238 0 16 245 312 259 312 4 0 54 -38 111 -84z m-947 -167 c75 -61 137 -115 137 -121 0 -12 -187 -242 -233 -287 l-35 -33 -34 23 c-87 61 -238 188 -238 201 0 25 235 328 254 328 6 0 73 -50 149 -111z m-982 -141 c71 -56 129 -106 129 -112 0 -14 -98 -159 -142 -210 -30 -34 -36 -38 -55 -28 -21 11 -127 127 -207 224 l-38 48 71 84 c67 79 83 93 104 95 5 1 66 -45 138 -101z m2582 -215 c122 -98 227 -183 234 -188 11 -9 5 -23 -35 -76 -43 -56 -234 -254 -246 -254 -18 0 -446 364 -446 380 0 34 235 315 263 315 6 0 109 -80 230 -177z m-1152 -5 c79 -57 209 -170 209 -182 0 -10 -56 -85 -209 -278 l-44 -56 -146 116 c-80 64 -148 117 -150 119 -5 3 173 229 217 276 20 20 46 37 58 37 11 0 41 -14 65 -32z m-916 -194 c44 -34 98 -78 119 -96 l40 -35 -81 -99 c-44 -54 -87 -105 -95 -112 -13 -10 -28 -6 -92 27 -41 21 -104 60 -138 85 -114 83 -109 65 -45 148 31 40 79 97 106 127 l50 54 28 -18 c15 -10 64 -46 108 -81z m1434 -226 c125 -93 311 -250 306 -258 -20 -32 -351 -132 -445 -134 -59 -1 -68 3 -152 79 l-39 36 97 122 c93 117 163 197 173 197 2 0 29 -19 60 -42z m-979 -139 c99 -75 220 -181 220 -193 0 -56 -129 -43 -345 35 -72 26 -83 33 -76 47 12 23 131 152 139 152 4 0 32 -19 62 -41z" fill="#ffffff"/>
</g>
</svg>