<?xml version="1.0" encoding="UTF-8"?>
<svg width="53px" height="50px" viewBox="0 0 53 50" version="1.1" xmlns="http://www.w3.org/2000/svg" xmlns:xlink="http://www.w3.org/1999/xlink">
    <!-- Generator: Sketch 63.1 (92452) - https://sketch.com -->
    <title>icon-pop</title>
    <desc>Created with Sketch.</desc>
    <defs>
        <radialGradient cx="50.2399427%" cy="25.8357279%" fx="50.2399427%" fy="25.8357279%" r="59.2272285%" gradientTransform="translate(0.502399,0.258357),rotate(64.664095),scale(1.000000,0.494719),translate(-0.502399,-0.258357)" id="radialGradient-1">
            <stop stop-color="#CDAE74" offset="0%"></stop>
            <stop stop-color="#946F3B" offset="100%"></stop>
        </radialGradient>
    </defs>
    <g id="Symbols" stroke="none" stroke-width="1" fill="none" fill-rule="evenodd">
        <g id="nav" transform="translate(-11.000000, -26.000000)" fill="url(#radialGradient-1)">
            <g id="NAV-/-hover">
                <g id="POP" transform="translate(11.000000, 5.000000)">
                    <g id="Group">
                        <path d="M21.5647301,57.8332378 C22.180121,59.6902123 23.2113144,61.2459561 24.72489,62.4587049 C26.239594,63.6723567 27.971039,64.3587983 29.9129056,64.5345852 C29.1417862,65.1117621 25.5234687,65.1691788 23.7851776,64.6108147 C20.8787725,63.677248 18.8976353,61.7777566 17.8671189,58.8384437 C19.1082073,58.5010172 20.3088213,58.1746526 21.5647301,57.8332378 Z M28.2468289,58.993687 C29.6711803,60.2876318 31.3463524,61.1020005 33.2696369,61.3887077 C35.1707281,61.6719533 36.999748,61.38788 38.7690342,60.6382272 C38.7884439,60.6768311 38.8078535,60.7153598 38.8272631,60.7538884 C38.0343268,61.3357309 37.2671195,61.9572307 36.4430374,62.4908372 C34.8016441,63.5536855 32.97774,64.0504941 31.0266953,63.968395 C28.9292507,63.8801253 27.0850342,63.1250545 25.5536288,61.7013013 C26.4467731,60.8033284 27.3359301,59.9094191 28.2468289,58.993687 Z M12.6593251,52.5268224 C13.9375024,52.8706453 15.1395458,53.1939998 16.3746908,53.5262339 C15.6237335,57.6650513 16.9769915,60.9840819 20.3103334,63.6007927 C18.3925408,62.9803464 16.6522186,62.2027002 15.2373463,60.8188302 C13.387036,59.009264 12.4554487,56.8162175 12.4840365,54.2292309 C12.490055,53.6834337 12.5935731,53.1386901 12.6593251,52.5268224 Z M44.5360664,52.7582801 C44.5681901,52.7734056 44.6003138,52.7883806 44.6324375,52.8033556 C44.2061778,53.7673991 43.8495821,54.7700464 43.340192,55.6878856 C41.9933286,58.1144366 39.9924056,59.7354232 37.2449639,60.3497742 C36.0332157,60.6207539 34.8190601,60.5883959 33.5385506,60.3357023 C33.8638502,59.109032 34.1823789,57.9080225 34.5126436,56.6625395 C38.6344833,57.3772756 41.9897928,56.0958225 44.5360664,52.7582801 Z M11.3031632,44.5449776 C12.2123317,45.4522816 13.09705,46.335129 14.0047891,47.2410033 C11.3224223,50.4198408 10.8412439,53.978095 12.3522616,57.8873961 C11.8330162,57.2244328 11.2772836,56.5865282 10.8020485,55.8934644 C9.73985979,54.3445684 9.11401182,52.6295178 9.05578291,50.7391317 C8.99146028,48.6530925 9.57081539,46.7621797 10.859826,45.1043952 C11.0053983,44.9171702 11.1542807,44.7326542 11.3031632,44.5449776 Z M45.5725862,43.1517764 C46.3878662,46.4867602 46.1441925,49.6370775 43.8994453,52.4036136 C42.8369557,53.7130601 41.4677487,54.6072705 39.8261297,55.1458435 C39.6057025,54.346525 39.3864789,53.5563871 39.1702645,52.7654215 C39.0814165,52.4402609 39.015815,52.1076505 38.908761,51.7887358 C38.8223957,51.5310756 38.8825806,51.4154897 39.1449116,51.324812 C40.4261734,50.8818833 41.5717182,50.2073313 42.5531086,49.2639067 C44.2211337,47.6602278 45.2120785,45.7167144 45.4949476,43.4160587 C45.5060818,43.3255315 45.529554,43.236434 45.5725862,43.1517764 Z M27.0524215,38.4315285 C27.4913201,38.4323582 27.7173144,38.7043161 27.8941829,39.0672528 C28.4807602,40.2708209 29.0860701,41.4651331 29.6671555,42.6711845 C29.7724791,42.8898645 29.9010491,42.993034 30.136974,43.0256177 C31.414399,43.2017809 32.6900937,43.3897584 33.9663902,43.5738229 C34.0531317,43.5863146 34.1394971,43.6023431 34.2264643,43.6124268 C34.6089395,43.6565993 34.8937647,43.8414915 35.0112005,44.2151891 C35.1287868,44.5891124 34.9895339,44.8939552 34.7131347,45.1602692 C33.7834281,46.0560598 32.8709494,46.9698355 31.9296572,47.8529838 C31.646111,48.1191474 31.5404112,48.3555868 31.6206828,48.7593849 C31.8769202,50.0480621 32.0750038,51.348328 32.3009229,52.6431006 C32.3648694,53.0095741 32.2773756,53.3193834 31.9794602,53.545137 C31.678987,53.7728472 31.355493,53.7656231 31.026432,53.5924701 C29.8076873,52.9513296 28.5839021,52.3197461 27.3716273,51.6667912 C27.1310381,51.5372086 26.9530412,51.5489478 26.71832,51.6750688 C25.5165775,52.3210254 24.3080643,52.9548664 23.0951124,53.5796773 C22.4456418,53.914169 21.777213,53.5361069 21.7808993,52.8021817 C21.9103722,52.0391343 22.0469919,51.2243892 22.187298,50.4103215 C22.2957814,49.781146 22.4247276,49.1547548 22.5083094,48.5223435 C22.5284713,48.369734 22.450908,48.1524085 22.3408448,48.0424664 C21.3741997,47.077219 20.3927341,46.1267207 19.4094629,45.1783295 C19.1271204,44.9059954 18.9584521,44.6040874 19.087925,44.2081907 C19.2165702,43.8147021 19.5272749,43.6582548 19.9156181,43.6031709 L22.4678211,43.2316026 C22.8933257,43.1708359 23.3190755,43.1120061 23.7453352,43.057148 C24.1131403,43.0098902 24.3397366,42.8907675 24.5066745,42.5321954 C25.0505205,41.3645974 25.6434172,40.2198758 26.206372,39.0609317 C26.3836918,38.695888 26.6148019,38.4307027 27.0524215,38.4315285 Z M14.1989005,36.8752297 C14.5293158,38.1134886 14.8510042,39.3190885 15.1825479,40.5614863 C11.2445731,41.9723715 9.04669499,44.7878208 8.45056333,48.8635777 C7.21534302,44.7866168 8.32801178,38.916344 14.1989005,36.8752297 Z M41.6963988,34.1586379 C42.24032,34.8804477 42.8168916,35.5800583 43.3214669,36.328507 C44.3598825,37.8686738 44.916894,39.5807897 44.9600767,41.4420535 C45.0124376,43.6984615 44.2154387,45.7767499 42.6722973,47.4866835 C41.7759933,46.5860015 40.8933814,45.6990906 39.9903067,44.7916361 C42.696296,41.6203989 43.1596447,38.0683153 41.6963988,34.1586379 Z M33.8091195,28.412665 C34.5645155,28.7249576 35.3371395,29.0015059 36.0721478,29.3561649 C38.5575595,30.5551427 40.3224823,32.4121924 41.1524324,35.0835357 C41.596221,36.5118792 41.631053,37.9615188 41.3022176,39.4786587 C40.0899428,39.157336 38.888727,38.8389481 37.6376329,38.5073159 C38.3831736,34.3620269 37.0473693,31.0466084 33.8091195,28.412665 Z M20.472938,31.6773943 C20.1462844,32.9180613 19.8294107,34.1214036 19.4963624,35.3862262 C15.3521039,34.6134714 12.0556252,35.9957611 9.4404398,39.290937 C9.47624983,39.1508945 9.4923493,39.0623238 9.52138852,38.9780424 C10.0501883,37.4438205 10.7002607,35.9737878 11.7646311,34.7213064 C13.3164241,32.8951849 15.2748415,31.8360991 17.656735,31.5320842 C18.5910307,31.4128862 19.4947826,31.5508217 20.472938,31.6773943 Z M28.148088,27.0323092 C29.8076873,27.1655039 31.3466158,27.6757072 32.7391444,28.6090482 C34.2987615,29.6544382 35.5554226,31.3421727 36.1196563,33.2028345 C34.9048236,33.5304031 33.6911194,33.8575201 32.4541688,34.1910336 C31.0252283,30.2353776 28.2179025,28.0198311 24.0151894,27.4458147 C25.4204321,27.1025939 26.7735396,26.9219909 28.148088,27.0323092 Z M27.7660793,29.7673602 C28.0096778,29.9584983 28.2529753,30.1500879 28.4994326,30.3437846 C27.5870291,31.2517659 26.6996777,32.1346132 25.7887036,33.0411647 C22.5812986,30.3042777 19.0289588,29.882043 15.1333392,31.3608801 C15.7625726,30.8648993 16.3700641,30.3377645 17.0254779,29.8792587 C18.650847,28.7422127 20.4625636,28.0690905 22.4494936,28.0401188 C24.3975291,28.0118243 26.2048071,28.5424207 27.7660793,29.7673602 Z" id="icon-pop"></path>
                    </g>
                </g>
            </g>
        </g>
    </g>
</svg>